<mxfile host="Electron" modified="2023-11-06T00:17:28.357Z" agent="Mozilla/5.0 (Windows NT 10.0; Win64; x64) AppleWebKit/537.36 (KHTML, like Gecko) draw.io/21.2.1 Chrome/112.0.5615.87 Electron/24.1.2 Safari/537.36" etag="4o9r2A6SurznGeRBf1pt" version="21.2.1" type="device">
  <diagram name="Página-1" id="JdE8vzOGWMbI0Z438wiL">
    <mxGraphModel dx="875" dy="524" grid="1" gridSize="10" guides="1" tooltips="1" connect="1" arrows="1" fold="1" page="1" pageScale="1" pageWidth="1169" pageHeight="1654" math="0" shadow="0">
      <root>
        <mxCell id="0" />
        <mxCell id="1" parent="0" />
        <mxCell id="x1iGfWKIXA-GosZho70a-2" value="&lt;h1&gt;Purga&lt;/h1&gt;&lt;p&gt;Funcion que permite purgar los contenedores.&lt;/p&gt;" style="text;html=1;strokeColor=none;fillColor=none;spacing=5;spacingTop=-20;whiteSpace=wrap;overflow=hidden;rounded=0;align=center;" parent="1" vertex="1">
          <mxGeometry x="200" y="40" width="200" height="120" as="geometry" />
        </mxCell>
        <mxCell id="vdxpz7PzCWEYRypnOBNt-2" value="&lt;span style=&quot;font-size: 24px;&quot;&gt;&lt;b&gt;MASTER&lt;/b&gt;&lt;/span&gt;" style="text;html=1;strokeColor=none;fillColor=none;align=center;verticalAlign=middle;whiteSpace=wrap;rounded=0;" vertex="1" parent="1">
          <mxGeometry x="80" y="200" width="120" height="40" as="geometry" />
        </mxCell>
        <mxCell id="vdxpz7PzCWEYRypnOBNt-3" value="&lt;span style=&quot;font-size: 24px;&quot;&gt;&lt;b&gt;CELDA&lt;/b&gt;&lt;/span&gt;" style="text;html=1;strokeColor=none;fillColor=none;align=center;verticalAlign=middle;whiteSpace=wrap;rounded=0;" vertex="1" parent="1">
          <mxGeometry x="400" y="200" width="120" height="40" as="geometry" />
        </mxCell>
        <mxCell id="vdxpz7PzCWEYRypnOBNt-22" style="edgeStyle=orthogonalEdgeStyle;rounded=0;orthogonalLoop=1;jettySize=auto;html=1;entryX=0.5;entryY=0;entryDx=0;entryDy=0;" edge="1" parent="1" source="vdxpz7PzCWEYRypnOBNt-5" target="vdxpz7PzCWEYRypnOBNt-6">
          <mxGeometry relative="1" as="geometry" />
        </mxCell>
        <mxCell id="vdxpz7PzCWEYRypnOBNt-5" value="ORDEN DE PURGA" style="rounded=1;whiteSpace=wrap;html=1;" vertex="1" parent="1">
          <mxGeometry x="80" y="280" width="120" height="40" as="geometry" />
        </mxCell>
        <mxCell id="vdxpz7PzCWEYRypnOBNt-23" value="" style="edgeStyle=orthogonalEdgeStyle;rounded=0;orthogonalLoop=1;jettySize=auto;html=1;" edge="1" parent="1" source="vdxpz7PzCWEYRypnOBNt-6" target="vdxpz7PzCWEYRypnOBNt-7">
          <mxGeometry relative="1" as="geometry" />
        </mxCell>
        <mxCell id="vdxpz7PzCWEYRypnOBNt-6" value="PRIMER CONTENEDOR" style="rounded=0;whiteSpace=wrap;html=1;" vertex="1" parent="1">
          <mxGeometry x="80" y="360" width="120" height="40" as="geometry" />
        </mxCell>
        <mxCell id="vdxpz7PzCWEYRypnOBNt-24" style="edgeStyle=orthogonalEdgeStyle;rounded=0;orthogonalLoop=1;jettySize=auto;html=1;entryX=0;entryY=0.5;entryDx=0;entryDy=0;dashed=1;" edge="1" parent="1" source="vdxpz7PzCWEYRypnOBNt-7" target="vdxpz7PzCWEYRypnOBNt-8">
          <mxGeometry relative="1" as="geometry">
            <Array as="points">
              <mxPoint x="240" y="460" />
              <mxPoint x="240" y="300" />
            </Array>
          </mxGeometry>
        </mxCell>
        <mxCell id="vdxpz7PzCWEYRypnOBNt-7" value="CONFIRMAR" style="rounded=0;whiteSpace=wrap;html=1;" vertex="1" parent="1">
          <mxGeometry x="80" y="440" width="120" height="40" as="geometry" />
        </mxCell>
        <mxCell id="vdxpz7PzCWEYRypnOBNt-11" value="" style="edgeStyle=orthogonalEdgeStyle;rounded=0;orthogonalLoop=1;jettySize=auto;html=1;" edge="1" parent="1" source="vdxpz7PzCWEYRypnOBNt-8">
          <mxGeometry relative="1" as="geometry">
            <mxPoint x="460" y="360" as="targetPoint" />
          </mxGeometry>
        </mxCell>
        <mxCell id="vdxpz7PzCWEYRypnOBNt-8" value="SEÑAL DE PURGA" style="rounded=1;whiteSpace=wrap;html=1;" vertex="1" parent="1">
          <mxGeometry x="400" y="280" width="120" height="40" as="geometry" />
        </mxCell>
        <mxCell id="vdxpz7PzCWEYRypnOBNt-25" value="" style="edgeStyle=orthogonalEdgeStyle;rounded=0;orthogonalLoop=1;jettySize=auto;html=1;exitX=0.5;exitY=1;exitDx=0;exitDy=0;" edge="1" parent="1" source="vdxpz7PzCWEYRypnOBNt-36" target="vdxpz7PzCWEYRypnOBNt-14">
          <mxGeometry relative="1" as="geometry">
            <mxPoint x="460" y="480" as="sourcePoint" />
          </mxGeometry>
        </mxCell>
        <mxCell id="vdxpz7PzCWEYRypnOBNt-38" style="edgeStyle=orthogonalEdgeStyle;rounded=0;orthogonalLoop=1;jettySize=auto;html=1;dashed=1;" edge="1" parent="1" source="vdxpz7PzCWEYRypnOBNt-14" target="vdxpz7PzCWEYRypnOBNt-15">
          <mxGeometry relative="1" as="geometry">
            <Array as="points">
              <mxPoint x="300" y="460" />
              <mxPoint x="300" y="540" />
            </Array>
          </mxGeometry>
        </mxCell>
        <mxCell id="vdxpz7PzCWEYRypnOBNt-14" value="PROCESO DE PURGA" style="shape=hexagon;perimeter=hexagonPerimeter2;whiteSpace=wrap;html=1;fixedSize=1;" vertex="1" parent="1">
          <mxGeometry x="400" y="440" width="120" height="40" as="geometry" />
        </mxCell>
        <mxCell id="vdxpz7PzCWEYRypnOBNt-41" value="" style="edgeStyle=orthogonalEdgeStyle;rounded=0;orthogonalLoop=1;jettySize=auto;html=1;" edge="1" parent="1" source="vdxpz7PzCWEYRypnOBNt-15" target="vdxpz7PzCWEYRypnOBNt-16">
          <mxGeometry relative="1" as="geometry" />
        </mxCell>
        <mxCell id="vdxpz7PzCWEYRypnOBNt-15" value="PROCESO DE PURGA" style="shape=hexagon;perimeter=hexagonPerimeter2;whiteSpace=wrap;html=1;fixedSize=1;" vertex="1" parent="1">
          <mxGeometry x="80" y="520" width="120" height="40" as="geometry" />
        </mxCell>
        <mxCell id="vdxpz7PzCWEYRypnOBNt-28" style="edgeStyle=orthogonalEdgeStyle;rounded=0;orthogonalLoop=1;jettySize=auto;html=1;entryX=0;entryY=0.25;entryDx=0;entryDy=0;dashed=1;" edge="1" parent="1" source="vdxpz7PzCWEYRypnOBNt-16">
          <mxGeometry relative="1" as="geometry">
            <mxPoint x="400" y="620" as="targetPoint" />
          </mxGeometry>
        </mxCell>
        <mxCell id="vdxpz7PzCWEYRypnOBNt-16" value="PURGA LISTA" style="rounded=0;whiteSpace=wrap;html=1;" vertex="1" parent="1">
          <mxGeometry x="80" y="600" width="120" height="40" as="geometry" />
        </mxCell>
        <mxCell id="vdxpz7PzCWEYRypnOBNt-30" value="" style="edgeStyle=orthogonalEdgeStyle;rounded=0;orthogonalLoop=1;jettySize=auto;html=1;exitX=0.5;exitY=1;exitDx=0;exitDy=0;" edge="1" parent="1" source="vdxpz7PzCWEYRypnOBNt-16" target="vdxpz7PzCWEYRypnOBNt-21">
          <mxGeometry relative="1" as="geometry">
            <mxPoint x="140" y="720" as="sourcePoint" />
          </mxGeometry>
        </mxCell>
        <mxCell id="vdxpz7PzCWEYRypnOBNt-31" style="edgeStyle=orthogonalEdgeStyle;rounded=0;orthogonalLoop=1;jettySize=auto;html=1;entryX=0;entryY=0.5;entryDx=0;entryDy=0;" edge="1" parent="1" source="vdxpz7PzCWEYRypnOBNt-21" target="vdxpz7PzCWEYRypnOBNt-6">
          <mxGeometry relative="1" as="geometry">
            <mxPoint x="40" y="380" as="targetPoint" />
            <Array as="points">
              <mxPoint x="40" y="740" />
              <mxPoint x="40" y="380" />
            </Array>
          </mxGeometry>
        </mxCell>
        <mxCell id="vdxpz7PzCWEYRypnOBNt-33" value="" style="edgeStyle=orthogonalEdgeStyle;rounded=0;orthogonalLoop=1;jettySize=auto;html=1;" edge="1" parent="1" source="vdxpz7PzCWEYRypnOBNt-21" target="vdxpz7PzCWEYRypnOBNt-32">
          <mxGeometry relative="1" as="geometry" />
        </mxCell>
        <mxCell id="vdxpz7PzCWEYRypnOBNt-21" value="ULTIMO CONTENEDOR" style="rhombus;whiteSpace=wrap;html=1;" vertex="1" parent="1">
          <mxGeometry x="80" y="680" width="120" height="120" as="geometry" />
        </mxCell>
        <mxCell id="vdxpz7PzCWEYRypnOBNt-32" value="FIN DEL PROCESO" style="rounded=1;whiteSpace=wrap;html=1;" vertex="1" parent="1">
          <mxGeometry x="80" y="840" width="120" height="60" as="geometry" />
        </mxCell>
        <mxCell id="vdxpz7PzCWEYRypnOBNt-34" value="SI" style="text;html=1;strokeColor=none;fillColor=none;align=center;verticalAlign=middle;whiteSpace=wrap;rounded=0;" vertex="1" parent="1">
          <mxGeometry x="130" y="800" width="60" height="30" as="geometry" />
        </mxCell>
        <mxCell id="vdxpz7PzCWEYRypnOBNt-35" value="NO" style="text;html=1;strokeColor=none;fillColor=none;align=center;verticalAlign=middle;whiteSpace=wrap;rounded=0;" vertex="1" parent="1">
          <mxGeometry x="30" y="690" width="60" height="30" as="geometry" />
        </mxCell>
        <mxCell id="vdxpz7PzCWEYRypnOBNt-36" value="VARIABLES A 0" style="rounded=0;whiteSpace=wrap;html=1;" vertex="1" parent="1">
          <mxGeometry x="400" y="360" width="120" height="40" as="geometry" />
        </mxCell>
        <mxCell id="vdxpz7PzCWEYRypnOBNt-43" value="FIN DE PURGA" style="rounded=1;whiteSpace=wrap;html=1;" vertex="1" parent="1">
          <mxGeometry x="400" y="600" width="120" height="40" as="geometry" />
        </mxCell>
      </root>
    </mxGraphModel>
  </diagram>
</mxfile>
